<svg width="992" height="162" viewBox="0 0 992 162" fill="none" xmlns="http://www.w3.org/2000/svg">
<path d="M66.2 158V146.2L52.4 141.8V95.2C57.6 92.2 63.4 90.6 70.4 90.6C72.2 90.6 74.6 90.6 77 90.8C79.4 91 81.8 91.4 83.4 91.8C89.8 80.6 92 63 88.2 50.6C69 50.6 59.2 60.2 52.4 84.2V74.2L53 50.6L7.45058e-08 59.4V69.8C7.45058e-08 72 0.8 73 2.6 73.6C8.2 75.4 8.8 76.4 8.8 80.2V135.4C8.8 139.6 7.6 141.8 2.6 144.2C0.6 145.2 7.45058e-08 146 7.45058e-08 148.2V159H64.2C65.8 159 66.2 158.8 66.2 158ZM125.414 47.2C138.014 47.2 148.414 36.4 148.414 23.4C148.414 11.6 138.014 0.799998 125.414 0.799998C112.414 0.799998 101.414 11.6 101.414 23.4C101.414 36.4 112.414 47.2 125.414 47.2ZM157.214 158V146.4L147.814 141.8V74.6L148.414 50.6L95.4141 59.8V70.2C95.4141 72.4 96.2141 73.4 98.0141 74C103.614 75.8 104.214 76.8 104.214 80.6V135.6C104.214 139.8 103.014 141.8 98.0141 144.2C96.0141 145.2 95.4141 146 95.4141 148.2V159H155.214C156.814 159 157.214 158.8 157.214 158ZM236.527 64C236.527 65.8 236.927 66.8 239.127 67.8C245.527 70.8 247.727 72.2 246.927 75.2L232.327 126L210.527 70L220.127 66V54C220.127 53.2 219.727 53 218.127 53H157.727V64C157.727 65.8 158.527 67 160.327 68.2C164.727 71 166.927 72.8 168.527 76.8L201.327 159H235.527L267.727 72.2L279.527 66V54C279.527 53.2 279.127 53 277.527 53H236.527V64ZM383.448 140.6L376.448 130.2C369.648 135 360.248 137.4 352.248 137.4C336.048 137.4 326.648 128 323.248 110C342.648 110 369.248 108 383.648 105.4C384.048 101.8 384.048 100 384.048 97.4C384.048 67.2 365.848 50.6 336.048 50.6C303.648 50.6 279.648 74.6 279.648 106.8C279.648 140.6 301.248 161.4 333.448 161.4C353.048 161.4 373.248 155.4 383.448 140.6ZM335.048 67C342.248 67 347.248 74.8 345.248 92.2L321.848 95.2C321.848 75.4 326.848 67 335.048 67ZM457.622 158V146.2L443.822 141.8V95.2C449.022 92.2 454.822 90.6 461.822 90.6C463.622 90.6 466.022 90.6 468.422 90.8C470.822 91 473.222 91.4 474.822 91.8C481.222 80.6 483.422 63 479.622 50.6C460.422 50.6 450.622 60.2 443.822 84.2V74.2L444.422 50.6L391.422 59.4V69.8C391.422 72 392.222 73 394.022 73.6C399.622 75.4 400.222 76.4 400.222 80.2V135.4C400.222 139.6 399.022 141.8 394.022 144.2C392.022 145.2 391.422 146 391.422 148.2V159H455.622C457.222 159 457.622 158.8 457.622 158ZM547.236 158V146.4L539.236 142.2V85.4C543.036 82.6 547.236 81 551.236 81C556.036 81 559.836 82.6 561.636 87.6C562.636 90.2 563.236 93.6 563.236 98.2V135.6C563.236 137 563.236 138.2 563.036 139.2C562.636 141.4 561.636 142.8 558.836 144.2C556.436 145.2 555.836 146 555.836 148.2V159H612.836C614.436 159 614.836 158.8 614.836 158V146.4L606.836 142.2V85.4C610.236 82.8 614.436 81 618.836 81C626.236 81 631.036 84.4 631.036 98.2V135.6C631.036 139.8 630.636 142.2 626.236 144.2C624.236 145.2 623.636 146 623.636 148.2V159H681.836C683.436 159 683.836 158.8 683.836 158V146.4L674.436 141.8V84.4C674.436 82.8 674.436 81.2 674.236 79.6C672.636 61.4 662.236 50.6 644.836 50.6C642.236 50.6 639.836 50.8 637.436 51.4C625.636 53.6 615.836 61.8 605.636 76C602.436 60.8 592.436 50.6 577.236 50.6C573.636 50.6 570.036 51 566.836 52C556.836 55 548.236 62.2 539.436 74.2L539.836 50.6L486.836 59.8V70.2C486.836 72.4 487.636 73.4 489.436 74C494.836 75.6 495.636 76.8 495.636 80.6V135.6C495.636 139.8 494.436 141.8 489.436 144.2C487.436 145.2 486.836 146 486.836 148.2V159H545.236C546.836 159 547.236 158.8 547.236 158ZM771.714 161.4C783.314 161.4 796.714 155.6 802.514 145.8L796.914 135C795.714 136 794.314 136.4 792.514 136.4C789.714 136.4 787.714 134.4 787.714 131V91.2C787.714 64.8 776.914 50.6 742.714 50.6C727.514 50.6 707.314 54.4 694.714 60.8L698.114 89.6H712.714C715.314 89.6 716.714 89.2 717.914 86.6C720.514 81 722.514 74 723.914 67.2C726.514 66.6 728.914 66.4 731.714 66.4C738.914 66.4 744.114 69.8 744.114 85.4V99H741.514C710.714 99.4 687.514 106.2 687.514 131.2C687.514 150.2 700.314 161.6 716.714 161.6C727.914 161.6 739.914 157 746.314 144.4C750.314 157.2 758.914 161.4 771.714 161.4ZM725.714 125.6C725.714 118.6 730.314 113.4 742.514 113.2H744.114V136.2C742.114 137.2 739.914 137.6 737.914 137.6C729.914 137.6 725.714 132.4 725.714 125.6ZM803.003 71.4H813.403V127C813.403 149.6 825.603 161.4 845.003 161.4C861.003 161.4 875.003 156 883.803 145.4L876.603 133C873.603 135.2 870.003 136.6 866.603 136.6C859.403 136.6 857.203 131.6 857.203 119.4V72.8C866.003 73.2 874.203 73.8 880.003 74.4V53H857.203V23.8H843.803L815.403 53H803.003V71.4ZM990.792 140.6L983.792 130.2C976.992 135 967.592 137.4 959.592 137.4C943.392 137.4 933.992 128 930.592 110C949.992 110 976.592 108 990.992 105.4C991.392 101.8 991.392 100 991.392 97.4C991.392 67.2 973.192 50.6 943.392 50.6C910.992 50.6 886.992 74.6 886.992 106.8C886.992 140.6 908.592 161.4 940.792 161.4C960.392 161.4 980.592 155.4 990.792 140.6ZM942.392 67C949.592 67 954.592 74.8 952.592 92.2L929.192 95.2C929.192 75.4 934.192 67 942.392 67Z" fill="#0F0F0F"/>
</svg>
